<mxfile host="app.diagrams.net" modified="2024-04-23T16:21:59.540Z" agent="Mozilla/5.0 (X11; Linux x86_64; rv:91.0) Gecko/20100101 Firefox/91.0" etag="B53yAwgBSbae2rZv3WyC" version="24.2.8" type="device" pages="2">
  <diagram name="Page-1" id="Y3ocbVgS3l6psxrAQHQH">
    <mxGraphModel dx="1422" dy="795" grid="1" gridSize="10" guides="1" tooltips="1" connect="1" arrows="1" fold="1" page="1" pageScale="1" pageWidth="850" pageHeight="1100" math="0" shadow="0">
      <root>
        <mxCell id="0" />
        <mxCell id="1" parent="0" />
        <mxCell id="77lb82gPrRIhYGMgJ5H1-1" value="Виртуализация доверенной загрузки" style="rounded=0;whiteSpace=wrap;html=1;" parent="1" vertex="1">
          <mxGeometry x="360" y="190" width="250" height="60" as="geometry" />
        </mxCell>
        <mxCell id="77lb82gPrRIhYGMgJ5H1-2" value="" style="endArrow=classic;html=1;rounded=0;entryX=0;entryY=0.5;entryDx=0;entryDy=0;" parent="1" target="77lb82gPrRIhYGMgJ5H1-1" edge="1">
          <mxGeometry width="50" height="50" relative="1" as="geometry">
            <mxPoint x="170" y="220" as="sourcePoint" />
            <mxPoint x="450" y="200" as="targetPoint" />
          </mxGeometry>
        </mxCell>
        <mxCell id="77lb82gPrRIhYGMgJ5H1-5" value="" style="endArrow=classic;html=1;rounded=0;exitX=1;exitY=0.5;exitDx=0;exitDy=0;" parent="1" source="77lb82gPrRIhYGMgJ5H1-1" edge="1">
          <mxGeometry width="50" height="50" relative="1" as="geometry">
            <mxPoint x="400" y="250" as="sourcePoint" />
            <mxPoint x="810" y="220" as="targetPoint" />
          </mxGeometry>
        </mxCell>
        <mxCell id="77lb82gPrRIhYGMgJ5H1-6" value="Бинарные образы доверенной и обычной ОС" style="text;html=1;align=center;verticalAlign=middle;whiteSpace=wrap;rounded=0;" parent="1" vertex="1">
          <mxGeometry x="180" y="190" width="170" height="30" as="geometry" />
        </mxCell>
        <mxCell id="77lb82gPrRIhYGMgJ5H1-18" value="" style="endArrow=classic;html=1;rounded=0;entryX=0.25;entryY=1;entryDx=0;entryDy=0;exitX=0.924;exitY=-0.09;exitDx=0;exitDy=0;exitPerimeter=0;" parent="1" source="77lb82gPrRIhYGMgJ5H1-21" target="77lb82gPrRIhYGMgJ5H1-1" edge="1">
          <mxGeometry width="50" height="50" relative="1" as="geometry">
            <mxPoint x="423" y="330" as="sourcePoint" />
            <mxPoint x="500" y="240" as="targetPoint" />
          </mxGeometry>
        </mxCell>
        <mxCell id="77lb82gPrRIhYGMgJ5H1-19" value="" style="endArrow=classic;html=1;rounded=0;entryX=0.25;entryY=1;entryDx=0;entryDy=0;exitX=0.11;exitY=-0.033;exitDx=0;exitDy=0;exitPerimeter=0;" parent="1" source="77lb82gPrRIhYGMgJ5H1-22" edge="1">
          <mxGeometry width="50" height="50" relative="1" as="geometry">
            <mxPoint x="540" y="330" as="sourcePoint" />
            <mxPoint x="540" y="250" as="targetPoint" />
          </mxGeometry>
        </mxCell>
        <mxCell id="77lb82gPrRIhYGMgJ5H1-21" value="ARM TrustZone" style="text;html=1;align=center;verticalAlign=middle;whiteSpace=wrap;rounded=0;" parent="1" vertex="1">
          <mxGeometry x="330" y="340" width="100" height="30" as="geometry" />
        </mxCell>
        <mxCell id="77lb82gPrRIhYGMgJ5H1-22" value="Гипервизор" style="text;html=1;align=center;verticalAlign=middle;whiteSpace=wrap;rounded=0;" parent="1" vertex="1">
          <mxGeometry x="527.5" y="340" width="125" height="30" as="geometry" />
        </mxCell>
        <mxCell id="77lb82gPrRIhYGMgJ5H1-24" value="Доверенная и обычная ОС в стадии исполнения" style="text;html=1;align=center;verticalAlign=middle;whiteSpace=wrap;rounded=0;" parent="1" vertex="1">
          <mxGeometry x="630" y="190" width="150" height="30" as="geometry" />
        </mxCell>
        <mxCell id="-15ByYptto8oTOYKmKo9-1" value="A0" style="text;html=1;align=center;verticalAlign=middle;whiteSpace=wrap;rounded=0;" parent="1" vertex="1">
          <mxGeometry x="570" y="230" width="60" height="30" as="geometry" />
        </mxCell>
      </root>
    </mxGraphModel>
  </diagram>
  <diagram id="wUQfvtSm14p-lbqcRpjS" name="Page-2">
    <mxGraphModel dx="2844" dy="1590" grid="1" gridSize="10" guides="1" tooltips="1" connect="1" arrows="1" fold="1" page="1" pageScale="1" pageWidth="850" pageHeight="1100" math="0" shadow="0">
      <root>
        <mxCell id="0" />
        <mxCell id="1" parent="0" />
        <mxCell id="kfZHU7LY8y-G7j_mRPj0-1" value="Создать доверенную и соответствующую ей гостевую виртуальную машину" style="rounded=0;whiteSpace=wrap;html=1;" parent="1" vertex="1">
          <mxGeometry x="180" y="250" width="260" height="90" as="geometry" />
        </mxCell>
        <mxCell id="kfZHU7LY8y-G7j_mRPj0-5" value="Зарегистрировать созданные виртуальные машины в модуле переключения контекста" style="rounded=0;whiteSpace=wrap;html=1;" parent="1" vertex="1">
          <mxGeometry x="590" y="360" width="260" height="90" as="geometry" />
        </mxCell>
        <mxCell id="ONyhv8IDZoXMDrdKtbyr-1" value="Перенести таблицы страниц виртуальных машин из пространства гипервизора в модуль отображения памяти" style="rounded=0;whiteSpace=wrap;html=1;" parent="1" vertex="1">
          <mxGeometry x="1020" y="485" width="260" height="90" as="geometry" />
        </mxCell>
        <mxCell id="pvA0m7uCWIuGmiLYwaB_-1" value="Посчитать и сравнить контрольную сумму доверенной и обычной ОС" style="rounded=0;whiteSpace=wrap;html=1;" parent="1" vertex="1">
          <mxGeometry x="1470" y="600" width="260" height="90" as="geometry" />
        </mxCell>
        <mxCell id="pvA0m7uCWIuGmiLYwaB_-2" value="Создать соответсвие между виртуальными машинами и ОС" style="rounded=0;whiteSpace=wrap;html=1;" parent="1" vertex="1">
          <mxGeometry x="1920" y="740" width="260" height="90" as="geometry" />
        </mxCell>
        <mxCell id="pvA0m7uCWIuGmiLYwaB_-10" value="" style="endArrow=classic;html=1;rounded=0;entryX=-0.004;entryY=0.6;entryDx=0;entryDy=0;entryPerimeter=0;" parent="1" target="pvA0m7uCWIuGmiLYwaB_-1" edge="1">
          <mxGeometry width="50" height="50" relative="1" as="geometry">
            <mxPoint x="50" y="650" as="sourcePoint" />
            <mxPoint x="1280" y="580" as="targetPoint" />
          </mxGeometry>
        </mxCell>
        <mxCell id="FvMOY4_IT1NegRj11d-C-1" value="Бинарные образы доверенной и обычной ОС" style="text;html=1;align=center;verticalAlign=middle;whiteSpace=wrap;rounded=0;" parent="1" vertex="1">
          <mxGeometry x="1300" y="667" width="170" height="30" as="geometry" />
        </mxCell>
        <mxCell id="FvMOY4_IT1NegRj11d-C-2" value="" style="endArrow=classic;html=1;rounded=0;entryX=0;entryY=0.5;entryDx=0;entryDy=0;" parent="1" target="kfZHU7LY8y-G7j_mRPj0-1" edge="1">
          <mxGeometry width="50" height="50" relative="1" as="geometry">
            <mxPoint x="50" y="295" as="sourcePoint" />
            <mxPoint x="810" y="390" as="targetPoint" />
          </mxGeometry>
        </mxCell>
        <mxCell id="FvMOY4_IT1NegRj11d-C-3" value="" style="endArrow=classic;html=1;rounded=0;exitX=1;exitY=0.5;exitDx=0;exitDy=0;entryX=0;entryY=0.5;entryDx=0;entryDy=0;" parent="1" source="kfZHU7LY8y-G7j_mRPj0-1" target="kfZHU7LY8y-G7j_mRPj0-5" edge="1">
          <mxGeometry width="50" height="50" relative="1" as="geometry">
            <mxPoint x="650" y="430" as="sourcePoint" />
            <mxPoint x="700" y="380" as="targetPoint" />
            <Array as="points">
              <mxPoint x="480" y="295" />
              <mxPoint x="480" y="360" />
              <mxPoint x="480" y="405" />
            </Array>
          </mxGeometry>
        </mxCell>
        <mxCell id="FvMOY4_IT1NegRj11d-C-4" value="Виртуальные машины" style="text;html=1;align=center;verticalAlign=middle;whiteSpace=wrap;rounded=0;" parent="1" vertex="1">
          <mxGeometry x="510" y="370" width="60" height="30" as="geometry" />
        </mxCell>
        <mxCell id="bG4pTE1Fzi18qttC4dSs-1" value="" style="endArrow=classic;html=1;rounded=0;exitX=1;exitY=0.5;exitDx=0;exitDy=0;entryX=0;entryY=0.5;entryDx=0;entryDy=0;" parent="1" source="kfZHU7LY8y-G7j_mRPj0-5" target="ONyhv8IDZoXMDrdKtbyr-1" edge="1">
          <mxGeometry width="50" height="50" relative="1" as="geometry">
            <mxPoint x="930" y="460" as="sourcePoint" />
            <mxPoint x="980" y="410" as="targetPoint" />
            <Array as="points">
              <mxPoint x="880" y="405" />
              <mxPoint x="880" y="530" />
            </Array>
          </mxGeometry>
        </mxCell>
        <mxCell id="bG4pTE1Fzi18qttC4dSs-2" value="Зарегистрированные ВМ" style="text;html=1;align=center;verticalAlign=middle;whiteSpace=wrap;rounded=0;" parent="1" vertex="1">
          <mxGeometry x="880" y="490" width="140" height="30" as="geometry" />
        </mxCell>
        <mxCell id="bG4pTE1Fzi18qttC4dSs-4" value="" style="endArrow=classic;html=1;rounded=0;exitX=1;exitY=0.25;exitDx=0;exitDy=0;entryX=-0.005;entryY=0.307;entryDx=0;entryDy=0;entryPerimeter=0;" parent="1" source="pvA0m7uCWIuGmiLYwaB_-1" target="pvA0m7uCWIuGmiLYwaB_-2" edge="1">
          <mxGeometry width="50" height="50" relative="1" as="geometry">
            <mxPoint x="1530" y="640" as="sourcePoint" />
            <mxPoint x="1580" y="590" as="targetPoint" />
            <Array as="points">
              <mxPoint x="1770" y="623" />
              <mxPoint x="1770" y="767" />
            </Array>
          </mxGeometry>
        </mxCell>
        <mxCell id="8OOEJHGuzfShlJ0ki89z-1" value="" style="endArrow=classic;html=1;rounded=0;exitX=1;exitY=0.5;exitDx=0;exitDy=0;" parent="1" source="pvA0m7uCWIuGmiLYwaB_-2" edge="1">
          <mxGeometry width="50" height="50" relative="1" as="geometry">
            <mxPoint x="1950" y="730" as="sourcePoint" />
            <mxPoint x="2360" y="785" as="targetPoint" />
          </mxGeometry>
        </mxCell>
        <mxCell id="8OOEJHGuzfShlJ0ki89z-2" value="Доверенная и обычная ОС в стадии исполнения" style="text;html=1;align=center;verticalAlign=middle;whiteSpace=wrap;rounded=0;" parent="1" vertex="1">
          <mxGeometry x="2200" y="750" width="150" height="30" as="geometry" />
        </mxCell>
        <mxCell id="8OOEJHGuzfShlJ0ki89z-3" value="" style="endArrow=classic;html=1;rounded=0;exitX=1;exitY=0.5;exitDx=0;exitDy=0;entryX=0;entryY=0.25;entryDx=0;entryDy=0;" parent="1" source="ONyhv8IDZoXMDrdKtbyr-1" target="pvA0m7uCWIuGmiLYwaB_-1" edge="1">
          <mxGeometry width="50" height="50" relative="1" as="geometry">
            <mxPoint x="1220" y="710" as="sourcePoint" />
            <mxPoint x="1270" y="660" as="targetPoint" />
            <Array as="points">
              <mxPoint x="1300" y="530" />
              <mxPoint x="1300" y="580" />
              <mxPoint x="1300" y="623" />
            </Array>
          </mxGeometry>
        </mxCell>
        <mxCell id="8OOEJHGuzfShlJ0ki89z-4" value="Зарегистрированные ВМ" style="text;html=1;align=center;verticalAlign=middle;whiteSpace=wrap;rounded=0;" parent="1" vertex="1">
          <mxGeometry x="1315" y="590" width="140" height="30" as="geometry" />
        </mxCell>
        <mxCell id="8OOEJHGuzfShlJ0ki89z-6" value="" style="endArrow=classic;html=1;rounded=0;exitX=1;exitY=0.75;exitDx=0;exitDy=0;entryX=-0.004;entryY=0.782;entryDx=0;entryDy=0;entryPerimeter=0;" parent="1" source="pvA0m7uCWIuGmiLYwaB_-1" target="pvA0m7uCWIuGmiLYwaB_-2" edge="1">
          <mxGeometry width="50" height="50" relative="1" as="geometry">
            <mxPoint x="1810" y="710" as="sourcePoint" />
            <mxPoint x="1860" y="670" as="targetPoint" />
            <Array as="points">
              <mxPoint x="1750" y="668" />
              <mxPoint x="1750" y="810" />
            </Array>
          </mxGeometry>
        </mxCell>
        <mxCell id="8OOEJHGuzfShlJ0ki89z-7" value="Зарегистрированные ВМ" style="text;html=1;align=center;verticalAlign=middle;whiteSpace=wrap;rounded=0;" parent="1" vertex="1">
          <mxGeometry x="1810" y="740" width="60" height="30" as="geometry" />
        </mxCell>
        <mxCell id="8OOEJHGuzfShlJ0ki89z-8" value="Образы ОС загруженные в память" style="text;html=1;align=center;verticalAlign=middle;whiteSpace=wrap;rounded=0;" parent="1" vertex="1">
          <mxGeometry x="1760" y="780" width="150" height="30" as="geometry" />
        </mxCell>
        <mxCell id="U2YJhpC--L2ecNr26rCo-1" value="A11" style="text;html=1;align=center;verticalAlign=middle;whiteSpace=wrap;rounded=0;" parent="1" vertex="1">
          <mxGeometry x="400" y="320" width="60" height="30" as="geometry" />
        </mxCell>
        <mxCell id="U2YJhpC--L2ecNr26rCo-2" value="A12" style="text;html=1;align=center;verticalAlign=middle;whiteSpace=wrap;rounded=0;" parent="1" vertex="1">
          <mxGeometry x="805" y="428" width="60" height="30" as="geometry" />
        </mxCell>
        <mxCell id="U2YJhpC--L2ecNr26rCo-3" value="A13" style="text;html=1;align=center;verticalAlign=middle;whiteSpace=wrap;rounded=0;" parent="1" vertex="1">
          <mxGeometry x="1234" y="553" width="60" height="30" as="geometry" />
        </mxCell>
        <mxCell id="U2YJhpC--L2ecNr26rCo-4" value="A14" style="text;html=1;align=center;verticalAlign=middle;whiteSpace=wrap;rounded=0;" parent="1" vertex="1">
          <mxGeometry x="1684" y="667" width="60" height="30" as="geometry" />
        </mxCell>
        <mxCell id="U2YJhpC--L2ecNr26rCo-5" value="A15" style="text;html=1;align=center;verticalAlign=middle;whiteSpace=wrap;rounded=0;" parent="1" vertex="1">
          <mxGeometry x="2136" y="807" width="60" height="30" as="geometry" />
        </mxCell>
        <mxCell id="AVq0s6Iw3UPn4nIOLY6h-2" value="" style="endArrow=classic;html=1;rounded=0;entryX=0.5;entryY=1;entryDx=0;entryDy=0;" parent="1" target="kfZHU7LY8y-G7j_mRPj0-1" edge="1">
          <mxGeometry width="50" height="50" relative="1" as="geometry">
            <mxPoint x="310" y="940" as="sourcePoint" />
            <mxPoint x="920" y="460" as="targetPoint" />
          </mxGeometry>
        </mxCell>
        <mxCell id="Hbg_lCNhTEe1f3aaQytd-1" value="Гипервизор" style="text;html=1;align=center;verticalAlign=middle;whiteSpace=wrap;rounded=0;" parent="1" vertex="1">
          <mxGeometry x="260" y="950" width="100" height="30" as="geometry" />
        </mxCell>
        <mxCell id="Hbg_lCNhTEe1f3aaQytd-2" value="" style="endArrow=classic;html=1;rounded=0;entryX=0.5;entryY=1;entryDx=0;entryDy=0;" parent="1" target="kfZHU7LY8y-G7j_mRPj0-5" edge="1">
          <mxGeometry width="50" height="50" relative="1" as="geometry">
            <mxPoint x="720" y="940" as="sourcePoint" />
            <mxPoint x="920" y="460" as="targetPoint" />
          </mxGeometry>
        </mxCell>
        <mxCell id="Hbg_lCNhTEe1f3aaQytd-3" value="ARM TrustZone" style="text;html=1;align=center;verticalAlign=middle;whiteSpace=wrap;rounded=0;" parent="1" vertex="1">
          <mxGeometry x="670" y="950" width="100" height="30" as="geometry" />
        </mxCell>
        <mxCell id="Hbg_lCNhTEe1f3aaQytd-4" value="" style="endArrow=classic;html=1;rounded=0;entryX=0.5;entryY=1;entryDx=0;entryDy=0;" parent="1" edge="1">
          <mxGeometry width="50" height="50" relative="1" as="geometry">
            <mxPoint x="1150" y="940" as="sourcePoint" />
            <mxPoint x="1149.47" y="575" as="targetPoint" />
          </mxGeometry>
        </mxCell>
        <mxCell id="Hbg_lCNhTEe1f3aaQytd-5" value="ARM TrustZone" style="text;html=1;align=center;verticalAlign=middle;whiteSpace=wrap;rounded=0;" parent="1" vertex="1">
          <mxGeometry x="1100" y="950" width="100" height="30" as="geometry" />
        </mxCell>
        <mxCell id="Hbg_lCNhTEe1f3aaQytd-9" value="" style="endArrow=classic;html=1;rounded=0;entryX=0.5;entryY=1;entryDx=0;entryDy=0;" parent="1" edge="1">
          <mxGeometry width="50" height="50" relative="1" as="geometry">
            <mxPoint x="2049.4700000000003" y="930" as="sourcePoint" />
            <mxPoint x="2049.4700000000003" y="830" as="targetPoint" />
          </mxGeometry>
        </mxCell>
        <mxCell id="Hbg_lCNhTEe1f3aaQytd-10" value="ARM TrustZone" style="text;html=1;align=center;verticalAlign=middle;whiteSpace=wrap;rounded=0;" parent="1" vertex="1">
          <mxGeometry x="2000" y="935" width="100" height="30" as="geometry" />
        </mxCell>
        <mxCell id="f9FbFKlWxjEMh0fVsN38-3" value="" style="endArrow=classic;html=1;rounded=0;entryX=0.5;entryY=1;entryDx=0;entryDy=0;" edge="1" parent="1">
          <mxGeometry width="50" height="50" relative="1" as="geometry">
            <mxPoint x="1600" y="930" as="sourcePoint" />
            <mxPoint x="1599.41" y="690" as="targetPoint" />
          </mxGeometry>
        </mxCell>
        <mxCell id="f9FbFKlWxjEMh0fVsN38-4" value="Алгоритм подсчёта хэш суммы MD5" style="text;html=1;align=center;verticalAlign=middle;whiteSpace=wrap;rounded=0;" vertex="1" parent="1">
          <mxGeometry x="1525" y="940" width="150" height="30" as="geometry" />
        </mxCell>
      </root>
    </mxGraphModel>
  </diagram>
</mxfile>
